<svg width="17" height="19" viewBox="0 0 17 19" fill="none" xmlns="http://www.w3.org/2000/svg">
<path fill-rule="evenodd" clip-rule="evenodd" d="M2 0C0.895416 0 0 0.895432 0 2V17C0 18.1046 0.895416 19 2 19H15C16.1046 19 17 18.1046 17 17V2C17 0.895432 16.1046 0 15 0H2ZM13.6597 0.760818L6.3382 3.36214C5.93924 3.50388 5.5983 3.77106 5.36548 4.12437L1.08875 10.6116C0.727783 11.159 1.28082 11.8647 1.89865 11.6451L3.17505 11.1916C3.18753 11.6645 3.33701 12.1361 3.63651 12.5461C3.53436 12.8282 3.57034 13.1644 3.78159 13.434C3.97308 13.6784 4.25229 13.7914 4.52539 13.7897L6.03549 16.81C6.16681 17.0726 6.49323 17.1637 6.70587 16.9971L7.87238 16.083C8.08527 15.9162 8.07486 15.5774 7.85123 15.3871L5.27963 13.1986C5.34665 12.9339 5.30359 12.6357 5.11209 12.3914C4.90656 12.1291 4.6001 12.015 4.3092 12.0373C4.05817 11.6844 3.9819 11.2582 4.08701 10.8678L9.22028 9.04405C9.45801 8.95949 9.88098 8.75502 10.193 8.2818L14.4697 1.7946C14.8307 1.24681 14.2779 0.541306 13.6597 0.760818ZM10.9319 8.82216C10.4944 9.48553 9.90298 9.77184 9.56827 9.89069L5.76196 11.2432L7.48279 14.0464C7.96118 14.6569 9.4075 14.3666 11.044 13.43V16.608C10.708 16.736 10.488 16.868 10.384 17.004L10.504 18H16.072V15.912L15.184 15.804C14.992 15.98 14.844 16.276 14.74 16.692H12.772V14.4H14.44C14.536 14.656 14.636 14.824 14.74 14.904L15.496 14.808V12.672L14.74 12.588C14.636 12.684 14.536 12.852 14.44 13.092H12.772V12.2417C13.2626 11.8456 13.7041 11.4349 14.085 11.028H14.644C14.756 11.46 14.904 11.756 15.088 11.916L15.976 11.808V9.72H15.1088C15.6191 8.8969 15.7783 8.18936 15.4659 7.79073L13.1553 5.4493L10.9319 8.82216Z" fill="#2BC13A"/>
<path fill-rule="evenodd" clip-rule="evenodd" d="M2 0C0.895416 0 0 0.895432 0 2V17C0 18.1046 0.895416 19 2 19H15C16.1046 19 17 18.1046 17 17V2C17 0.895432 16.1046 0 15 0H2ZM13.6597 0.760818L6.3382 3.36214C5.93924 3.50388 5.5983 3.77106 5.36548 4.12437L1.08875 10.6116C0.727783 11.159 1.28082 11.8647 1.89865 11.6451L3.17505 11.1916C3.18753 11.6645 3.33701 12.1361 3.63651 12.5461C3.53436 12.8282 3.57034 13.1644 3.78159 13.434C3.97308 13.6784 4.25229 13.7914 4.52539 13.7897L6.03549 16.81C6.16681 17.0726 6.49323 17.1637 6.70587 16.9971L7.87238 16.083C8.08527 15.9162 8.07486 15.5774 7.85123 15.3871L5.27963 13.1986C5.34665 12.9339 5.30359 12.6357 5.11209 12.3914C4.90656 12.1291 4.6001 12.015 4.3092 12.0373C4.05817 11.6844 3.9819 11.2582 4.08701 10.8678L9.22028 9.04405C9.45801 8.95949 9.88098 8.75502 10.193 8.2818L14.4697 1.7946C14.8307 1.24681 14.2779 0.541306 13.6597 0.760818ZM10.9319 8.82216C10.4944 9.48553 9.90298 9.77184 9.56827 9.89069L5.76196 11.2432L7.48279 14.0464C7.96118 14.6569 9.4075 14.3666 11.044 13.43V16.608C10.708 16.736 10.488 16.868 10.384 17.004L10.504 18H16.072V15.912L15.184 15.804C14.992 15.98 14.844 16.276 14.74 16.692H12.772V14.4H14.44C14.536 14.656 14.636 14.824 14.74 14.904L15.496 14.808V12.672L14.74 12.588C14.636 12.684 14.536 12.852 14.44 13.092H12.772V12.2417C13.2626 11.8456 13.7041 11.4349 14.085 11.028H14.644C14.756 11.46 14.904 11.756 15.088 11.916L15.976 11.808V9.72H15.1088C15.6191 8.8969 15.7783 8.18936 15.4659 7.79073L13.1553 5.4493L10.9319 8.82216Z" fill="#2BC13A"/>
<path fill-rule="evenodd" clip-rule="evenodd" d="M2 0C0.895416 0 0 0.895432 0 2V17C0 18.1046 0.895416 19 2 19H15C16.1046 19 17 18.1046 17 17V2C17 0.895432 16.1046 0 15 0H2ZM13.6597 0.760818L6.3382 3.36214C5.93924 3.50388 5.5983 3.77106 5.36548 4.12437L1.08875 10.6116C0.727783 11.159 1.28082 11.8647 1.89865 11.6451L3.17505 11.1916C3.18753 11.6645 3.33701 12.1361 3.63651 12.5461C3.53436 12.8282 3.57034 13.1644 3.78159 13.434C3.97308 13.6784 4.25229 13.7914 4.52539 13.7897L6.03549 16.81C6.16681 17.0726 6.49323 17.1637 6.70587 16.9971L7.87238 16.083C8.08527 15.9162 8.07486 15.5774 7.85123 15.3871L5.27963 13.1986C5.34665 12.9339 5.30359 12.6357 5.11209 12.3914C4.90656 12.1291 4.6001 12.015 4.3092 12.0373C4.05817 11.6844 3.9819 11.2582 4.08701 10.8678L9.22028 9.04405C9.45801 8.95949 9.88098 8.75502 10.193 8.2818L14.4697 1.7946C14.8307 1.24681 14.2779 0.541306 13.6597 0.760818ZM10.9319 8.82216C10.4944 9.48553 9.90298 9.77184 9.56827 9.89069L5.76196 11.2432L7.48279 14.0464C7.96118 14.6569 9.4075 14.3666 11.044 13.43V16.608C10.708 16.736 10.488 16.868 10.384 17.004L10.504 18H16.072V15.912L15.184 15.804C14.992 15.98 14.844 16.276 14.74 16.692H12.772V14.4H14.44C14.536 14.656 14.636 14.824 14.74 14.904L15.496 14.808V12.672L14.74 12.588C14.636 12.684 14.536 12.852 14.44 13.092H12.772V12.2417C13.2626 11.8456 13.7041 11.4349 14.085 11.028H14.644C14.756 11.46 14.904 11.756 15.088 11.916L15.976 11.808V9.72H15.1088C15.6191 8.8969 15.7783 8.18936 15.4659 7.79073L13.1553 5.4493L10.9319 8.82216Z" fill="#2BC13A"/>
<path fill-rule="evenodd" clip-rule="evenodd" d="M2 0C0.895416 0 0 0.895432 0 2V17C0 18.1046 0.895416 19 2 19H15C16.1046 19 17 18.1046 17 17V2C17 0.895432 16.1046 0 15 0H2ZM13.6597 0.760818L6.3382 3.36214C5.93924 3.50388 5.5983 3.77106 5.36548 4.12437L1.08875 10.6116C0.727783 11.159 1.28082 11.8647 1.89865 11.6451L3.17505 11.1916C3.18753 11.6645 3.33701 12.1361 3.63651 12.5461C3.53436 12.8282 3.57034 13.1644 3.78159 13.434C3.97308 13.6784 4.25229 13.7914 4.52539 13.7897L6.03549 16.81C6.16681 17.0726 6.49323 17.1637 6.70587 16.9971L7.87238 16.083C8.08527 15.9162 8.07486 15.5774 7.85123 15.3871L5.27963 13.1986C5.34665 12.9339 5.30359 12.6357 5.11209 12.3914C4.90656 12.1291 4.6001 12.015 4.3092 12.0373C4.05817 11.6844 3.9819 11.2582 4.08701 10.8678L9.22028 9.04405C9.45801 8.95949 9.88098 8.75502 10.193 8.2818L14.4697 1.7946C14.8307 1.24681 14.2779 0.541306 13.6597 0.760818ZM10.9319 8.82216C10.4944 9.48553 9.90298 9.77184 9.56827 9.89069L5.76196 11.2432L7.48279 14.0464C7.96118 14.6569 9.4075 14.3666 11.044 13.43V16.608C10.708 16.736 10.488 16.868 10.384 17.004L10.504 18H16.072V15.912L15.184 15.804C14.992 15.98 14.844 16.276 14.74 16.692H12.772V14.4H14.44C14.536 14.656 14.636 14.824 14.74 14.904L15.496 14.808V12.672L14.74 12.588C14.636 12.684 14.536 12.852 14.44 13.092H12.772V12.2417C13.2626 11.8456 13.7041 11.4349 14.085 11.028H14.644C14.756 11.46 14.904 11.756 15.088 11.916L15.976 11.808V9.72H15.1088C15.6191 8.8969 15.7783 8.18936 15.4659 7.79073L13.1553 5.4493L10.9319 8.82216Z" fill="#2BC13A"/>
<path fill-rule="evenodd" clip-rule="evenodd" d="M2 0C0.895416 0 0 0.895432 0 2V17C0 18.1046 0.895416 19 2 19H15C16.1046 19 17 18.1046 17 17V2C17 0.895432 16.1046 0 15 0H2ZM13.6597 0.760818L6.3382 3.36214C5.93924 3.50388 5.5983 3.77106 5.36548 4.12437L1.08875 10.6116C0.727783 11.159 1.28082 11.8647 1.89865 11.6451L3.17505 11.1916C3.18753 11.6645 3.33701 12.1361 3.63651 12.5461C3.53436 12.8282 3.57034 13.1644 3.78159 13.434C3.97308 13.6784 4.25229 13.7914 4.52539 13.7897L6.03549 16.81C6.16681 17.0726 6.49323 17.1637 6.70587 16.9971L7.87238 16.083C8.08527 15.9162 8.07486 15.5774 7.85123 15.3871L5.27963 13.1986C5.34665 12.9339 5.30359 12.6357 5.11209 12.3914C4.90656 12.1291 4.6001 12.015 4.3092 12.0373C4.05817 11.6844 3.9819 11.2582 4.08701 10.8678L9.22028 9.04405C9.45801 8.95949 9.88098 8.75502 10.193 8.2818L14.4697 1.7946C14.8307 1.24681 14.2779 0.541306 13.6597 0.760818ZM10.9319 8.82216C10.4944 9.48553 9.90298 9.77184 9.56827 9.89069L5.76196 11.2432L7.48279 14.0464C7.96118 14.6569 9.4075 14.3666 11.044 13.43V16.608C10.708 16.736 10.488 16.868 10.384 17.004L10.504 18H16.072V15.912L15.184 15.804C14.992 15.98 14.844 16.276 14.74 16.692H12.772V14.4H14.44C14.536 14.656 14.636 14.824 14.74 14.904L15.496 14.808V12.672L14.74 12.588C14.636 12.684 14.536 12.852 14.44 13.092H12.772V12.2417C13.2626 11.8456 13.7041 11.4349 14.085 11.028H14.644C14.756 11.46 14.904 11.756 15.088 11.916L15.976 11.808V9.72H15.1088C15.6191 8.8969 15.7783 8.18936 15.4659 7.79073L13.1553 5.4493L10.9319 8.82216Z" fill="#2BC13A"/>
</svg>
